<svg width="214" height="50" viewBox="0 0 214 50" fill="none" xmlns="http://www.w3.org/2000/svg">
<path fill-rule="evenodd" clip-rule="evenodd" d="M27.2466 10.4517C27.494 11.1961 26.7911 11.8495 26.0477 11.5993L23.4379 10.7207C23.1763 10.6327 22.9636 10.44 22.8448 10.1908C22.4371 9.33582 22.0379 8.61316 21.6534 8.00245C19.7483 4.97647 15.6631 5.51835 14.5684 8.92243C13.0877 13.5269 13.5654 19.9626 13.5776 20.123C13.578 20.128 13.578 20.1285 13.5783 20.1336C14.0451 27.5724 16.7816 35.2058 17.6606 37.495C17.8189 37.9073 17.7003 38.3775 17.3389 38.6313C15.664 39.807 13.4698 40.7003 12.2576 41.1451C11.755 41.3295 11.2094 41.0613 11.0364 40.5546C7.58681 30.4557 7.55603 20.3088 7.55576 20.1285C7.55575 20.1227 7.55581 20.1228 7.55591 20.117C7.91688 -0.41707 17.0275 -0.0392751 17.6238 0.00747919C17.645 0.00914236 17.6655 0.0108096 17.6867 0.0119955C23.2254 0.321209 26.1564 7.17128 27.2466 10.4517ZM35.3693 41.0085C34.604 40.8544 34.3844 39.9262 34.9644 39.4037L37.0335 37.5392C37.2398 37.3533 37.5141 37.2625 37.7911 37.2826C38.7577 37.3525 39.5987 37.3603 40.3302 37.3231C43.8441 37.1444 45.3823 33.3478 43.0275 30.7032C39.8164 27.097 34.0082 24.2943 33.8609 24.2236C33.8563 24.2213 33.8558 24.221 33.8512 24.2188C27.2396 20.9339 19.3364 19.5343 16.9182 19.1632C16.4786 19.0957 16.1279 18.7554 16.0897 18.3123C15.9125 16.2553 16.2384 13.883 16.459 12.6025C16.5498 12.0757 17.0527 11.736 17.5777 11.8371C27.9645 13.8376 36.6924 18.8534 36.8508 18.9448C36.8559 18.9477 36.8557 18.9477 36.8608 18.9508C54.3261 29.4815 49.464 37.2769 49.1295 37.7726C49.1177 37.79 49.1062 37.8069 49.0949 37.8246C46.0743 42.525 38.7288 41.6848 35.3693 41.0085ZM6.90952 36.6742C7.06295 36.4478 7.12201 36.1699 7.06815 35.9018L6.51908 33.1689C6.36404 32.3973 5.44218 32.117 4.92349 32.709C2.64711 35.3072 -1.74991 41.275 0.741877 46.2681C0.751226 46.2869 0.759891 46.3054 0.768815 46.3243C1.02364 46.8652 5.23865 55.0369 23.0501 45.1127C23.0552 45.1099 23.0552 45.11 23.0603 45.107C23.2183 45.0149 31.9174 39.9258 38.8664 31.8675C39.2121 31.4666 39.1728 30.8679 38.7699 30.5245C37.7896 29.6891 35.9267 28.2091 34.0782 27.3243C33.6744 27.1311 33.2005 27.2643 32.921 27.6139C31.3833 29.5372 26.2031 35.7228 20.0621 39.8322C20.0579 39.8351 20.0574 39.8354 20.0531 39.8383C19.9189 39.9307 14.5938 43.5837 9.89076 44.5663C6.44199 45.2869 3.97055 42.0313 5.58919 38.8765C5.92726 38.2176 6.35974 37.4853 6.90952 36.6742Z" fill="#283B59"/>
<path d="M62.56 36.5V14.1H76.224V16.852H65.6V23.412H74.048V26.164H65.6V33.748H76.512V36.5H62.56ZM83.7028 36.82C82.6894 36.82 81.8841 36.6387 81.2868 36.276C80.7001 35.9027 80.2788 35.428 80.0228 34.852C79.7668 34.276 79.6388 33.6733 79.6388 33.044V12.5H82.5188V31.38C82.5188 32.276 82.5774 32.948 82.6948 33.396C82.8121 33.844 83.0468 34.1427 83.3988 34.292C83.7614 34.4413 84.3108 34.516 85.0468 34.516L84.6308 36.82H83.7028ZM94.597 36.82C92.7517 36.82 91.1997 36.4413 89.941 35.684C88.6823 34.9267 87.7277 33.924 87.077 32.676C86.437 31.4173 86.117 30.036 86.117 28.532C86.117 27.0707 86.4157 25.732 87.013 24.516C87.621 23.3 88.4957 22.3293 89.637 21.604C90.789 20.868 92.1757 20.5 93.797 20.5C95.0983 20.5 96.2557 20.7613 97.269 21.284C98.293 21.796 99.093 22.548 99.669 23.54C100.256 24.5213 100.549 25.716 100.549 27.124C100.549 27.348 100.538 27.5933 100.517 27.86C100.506 28.116 100.474 28.3827 100.421 28.66H89.061C89.1997 30.1107 89.5463 31.2413 90.101 32.052C90.6557 32.8627 91.3543 33.4333 92.197 33.764C93.0397 34.0947 93.957 34.26 94.949 34.26C95.6743 34.26 96.4317 34.1853 97.221 34.036C98.0103 33.8867 98.757 33.652 99.461 33.332L99.845 35.604C99.237 35.8707 98.4957 36.1427 97.621 36.42C96.7463 36.6867 95.7383 36.82 94.597 36.82ZM89.317 26.676H97.573C97.573 25.94 97.4343 25.3 97.157 24.756C96.8797 24.212 96.4583 23.796 95.893 23.508C95.3277 23.2093 94.6077 23.06 93.733 23.06C92.453 23.06 91.4663 23.38 90.773 24.02C90.0903 24.6493 89.605 25.5347 89.317 26.676ZM110.652 36.82C108.881 36.82 107.393 36.4627 106.188 35.748C104.993 35.0227 104.087 34.052 103.468 32.836C102.86 31.6093 102.556 30.2493 102.556 28.756C102.556 27.1987 102.849 25.796 103.436 24.548C104.033 23.3 104.945 22.3133 106.172 21.588C107.399 20.8627 108.967 20.5 110.876 20.5C111.697 20.5 112.471 20.5853 113.196 20.756C113.932 20.916 114.588 21.14 115.164 21.428L114.716 23.956C114.129 23.6787 113.505 23.46 112.844 23.3C112.193 23.14 111.516 23.06 110.812 23.06C109.084 23.06 107.767 23.5507 106.86 24.532C105.953 25.5133 105.5 26.8787 105.5 28.628C105.5 30.3347 105.932 31.7053 106.796 32.74C107.66 33.7747 108.977 34.292 110.748 34.292C111.473 34.292 112.167 34.2067 112.828 34.036C113.5 33.8653 114.14 33.6307 114.748 33.332L115.132 35.636C114.705 35.9347 114.081 36.2067 113.26 36.452C112.439 36.6973 111.569 36.82 110.652 36.82ZM122.847 36.5V18.068H116.511V14.1H133.279V18.068H126.943V36.5H122.847ZM132.95 36.5V20.5H136.662L136.758 22.196C137.163 21.748 137.734 21.3 138.47 20.852C139.206 20.404 140.011 20.18 140.886 20.18C141.142 20.18 141.376 20.2013 141.59 20.244L141.302 24.148C141.067 24.084 140.832 24.0413 140.598 24.02C140.374 23.9987 140.15 23.988 139.926 23.988C139.254 23.988 138.64 24.1427 138.086 24.452C137.531 24.7613 137.142 25.14 136.918 25.588V36.5H132.95ZM150.495 36.82C148.756 36.82 147.274 36.4413 146.047 35.684C144.82 34.9267 143.882 33.9187 143.231 32.66C142.591 31.4013 142.271 30.0253 142.271 28.532C142.271 27.028 142.591 25.6413 143.231 24.372C143.882 23.1027 144.82 22.0893 146.047 21.332C147.274 20.564 148.756 20.18 150.495 20.18C152.234 20.18 153.716 20.564 154.943 21.332C156.17 22.0893 157.103 23.1027 157.743 24.372C158.394 25.6413 158.719 27.028 158.719 28.532C158.719 30.0253 158.394 31.4013 157.743 32.66C157.103 33.9187 156.17 34.9267 154.943 35.684C153.716 36.4413 152.234 36.82 150.495 36.82ZM150.495 33.556C151.828 33.556 152.852 33.092 153.567 32.164C154.292 31.2253 154.655 30.0147 154.655 28.532C154.655 27.028 154.292 25.8067 153.567 24.868C152.852 23.9187 151.828 23.444 150.495 23.444C149.172 23.444 148.148 23.9187 147.423 24.868C146.698 25.8067 146.335 27.028 146.335 28.532C146.335 30.0147 146.698 31.2253 147.423 32.164C148.148 33.092 149.172 33.556 150.495 33.556ZM161.481 36.5V20.5H165.193L165.353 23.476L164.425 22.26C165.033 21.748 165.758 21.284 166.601 20.868C167.444 20.452 168.425 20.244 169.545 20.244C171.593 20.244 173.113 20.9267 174.105 22.292C175.097 23.6467 175.593 25.4067 175.593 27.572V36.5H171.625V27.892C171.625 26.3987 171.374 25.2947 170.873 24.58C170.382 23.8653 169.577 23.508 168.457 23.508C167.55 23.508 166.809 23.732 166.233 24.18C165.657 24.6173 165.15 25.204 164.713 25.94L165.449 23.988V36.5H161.481ZM179.137 36.5V20.5H183.105V36.5H179.137ZM179.137 18.068V14.1H183.105V18.068H179.137ZM194.249 36.82C192.414 36.82 190.873 36.4467 189.625 35.7C188.387 34.9427 187.449 33.94 186.809 32.692C186.179 31.4333 185.865 30.0467 185.865 28.532C185.865 27.0067 186.179 25.6147 186.809 24.356C187.438 23.0867 188.382 22.0733 189.641 21.316C190.899 20.5587 192.478 20.18 194.377 20.18C195.273 20.18 196.083 20.2813 196.809 20.484C197.534 20.676 198.153 20.916 198.665 21.204L198.345 24.404C197.854 24.148 197.299 23.9347 196.681 23.764C196.073 23.5933 195.433 23.508 194.761 23.508C193.225 23.508 192.035 23.972 191.193 24.9C190.35 25.828 189.929 27.0387 189.929 28.532C189.929 29.9507 190.361 31.1453 191.225 32.116C192.089 33.076 193.257 33.556 194.729 33.556C195.358 33.556 195.977 33.4653 196.585 33.284C197.203 33.092 197.801 32.8307 198.377 32.5L198.729 35.86C198.174 36.148 197.502 36.3773 196.713 36.548C195.934 36.7293 195.113 36.82 194.249 36.82ZM205.931 36.82C204.875 36.82 203.921 36.7187 203.067 36.516C202.225 36.3133 201.377 36.02 200.523 35.636L200.875 32.244C201.697 32.724 202.502 33.1133 203.291 33.412C204.091 33.7 204.929 33.844 205.803 33.844C206.593 33.844 207.195 33.716 207.611 33.46C208.027 33.204 208.235 32.7987 208.235 32.244C208.235 31.828 208.123 31.4867 207.899 31.22C207.686 30.9533 207.361 30.7133 206.923 30.5C206.486 30.2867 205.942 30.0573 205.291 29.812C204.31 29.4493 203.473 29.0547 202.779 28.628C202.097 28.2013 201.574 27.6893 201.211 27.092C200.859 26.484 200.683 25.7373 200.683 24.852C200.683 23.9347 200.923 23.124 201.403 22.42C201.883 21.716 202.566 21.1667 203.451 20.772C204.337 20.3773 205.387 20.18 206.603 20.18C207.617 20.18 208.523 20.292 209.323 20.516C210.134 20.74 210.881 21.044 211.563 21.428L211.211 24.82C210.497 24.3187 209.777 23.908 209.051 23.588C208.326 23.2573 207.531 23.092 206.667 23.092C205.985 23.092 205.457 23.2307 205.083 23.508C204.71 23.7853 204.523 24.18 204.523 24.692C204.523 25.3107 204.785 25.7747 205.307 26.084C205.83 26.3933 206.667 26.772 207.819 27.22C208.566 27.508 209.211 27.8067 209.755 28.116C210.31 28.4253 210.769 28.7667 211.131 29.14C211.494 29.5133 211.761 29.94 211.931 30.42C212.113 30.8893 212.203 31.4333 212.203 32.052C212.203 33.0653 211.958 33.9293 211.467 34.644C210.987 35.348 210.278 35.8867 209.339 36.26C208.411 36.6333 207.275 36.82 205.931 36.82Z" fill="#283B59"/>
</svg>
